<svg preserveAspectRatio="none" width="100%" height="100%" overflow="visible" style="display: block;" viewBox="0 0 30.5532 8.92567" fill="none" xmlns="http://www.w3.org/2000/svg">
<g id="Options Frame">
<path id="Open New Tab" d="M7.61692 7.85261H0.68659V1.02987H4.11954V0.343283H0.915453C0.407377 0.343283 0 0.755237 0 1.25874V7.66691C0 8.17041 0.407377 8.58236 0.915453 8.58236H7.32363C7.82713 8.58236 8.23908 8.17041 8.23908 7.66691V4.46282H7.61692V7.85261ZM5.03499 0.343283V1.02987H6.8659L2.17878 5.75819L2.82417 6.40358L7.61692 1.43915V3.54737H8.23908V0.343283H5.03499Z" fill="var(--fill-0, #777777)"/>
<path id="Print" d="M23.6186 3.22697V0.343295H28.5621V3.22697M23.6186 6.93456H22.7947C22.5762 6.93456 22.3666 6.84775 22.2121 6.69324C22.0576 6.53873 21.9708 6.32916 21.9708 6.11065V4.05088C21.9708 3.83237 22.0576 3.6228 22.2121 3.46829C22.3666 3.31378 22.5762 3.22697 22.7947 3.22697H29.386C29.6045 3.22697 29.8141 3.31378 29.9686 3.46829C30.1231 3.6228 30.2099 3.83237 30.2099 4.05088V6.11065C30.2099 6.32916 30.1231 6.53873 29.9686 6.69324C29.8141 6.84775 29.6045 6.93456 29.386 6.93456H28.5621M23.6186 5.28674H28.5621V8.58237H23.6186V5.28674Z" stroke="var(--stroke-0, #777777)" stroke-width="0.68659" stroke-linecap="round" stroke-linejoin="round"/>
</g>
</svg>
