<svg preserveAspectRatio="none" width="100%" height="100%" overflow="visible" style="display: block;" viewBox="0 0 136.126 9.23907" fill="none" xmlns="http://www.w3.org/2000/svg">
<g id="Options">
<path id="Star" d="M4.69227 0.500174L6.03079 3.21188L9.02406 3.64939L6.85817 5.75898L7.36932 8.73925L4.69227 7.33142L2.01522 8.73925L2.52637 5.75898L0.36047 3.64939L3.35374 3.21188L4.69227 0.500174Z" stroke="var(--stroke-0, #777777)" stroke-width="0.720919" stroke-linecap="round" stroke-linejoin="round"/>
<g id="Report Spam">
<path d="M33.5205 6.91539C33.2086 6.91539 32.9574 6.66414 32.9574 6.35226C32.9574 6.04037 33.2086 5.78912 33.5205 5.78912C33.8324 5.78912 34.0837 6.04037 34.0837 6.35226C34.0837 6.66414 33.8324 6.91539 33.5205 6.91539Z" fill="#777777"/>
<path d="M33.9537 5.05272H33.0873V2.45364H33.9537V5.05272Z" fill="var(--fill-0, #777777)"/>
<path d="M37.7791 6.38498L35.286 8.87815H31.7557L31.6502 8.77268L29.367 6.49045L29.2616 6.38498V2.85471L31.7557 0.360568H35.286L35.3914 0.466037L37.6737 2.74924L37.7791 2.85471V6.38498Z" stroke="var(--stroke-0, #777777)" stroke-width="0.720919"/>
</g>
<path id="Move to Trash" d="M58.0167 2.23722H58.8109M58.8109 2.23722H65.1642M58.8109 2.23722L58.8109 7.79636C58.8109 8.00699 58.8945 8.20899 59.0435 8.35792C59.1924 8.50686 59.3944 8.59053 59.605 8.59053H63.5758C63.7865 8.59053 63.9885 8.50686 64.1374 8.35792C64.2863 8.20899 64.37 8.00699 64.37 7.79636V2.23722M60.0021 2.23722V1.44306C60.0021 1.23244 60.0858 1.03044 60.2347 0.881504C60.3836 0.73257 60.5856 0.648899 60.7963 0.648899H62.3846C62.5952 0.648899 62.7972 0.73257 62.9461 0.881504C63.0951 1.03044 63.1788 1.23244 63.1788 1.44306V2.23722M60.7963 4.22263V6.60512M62.3846 4.22263V6.60512" stroke="var(--stroke-0, #777777)" stroke-width="0.720919" stroke-linecap="round" stroke-linejoin="round"/>
<path id="Break" d="M85.7619 8.08493V1.15406" stroke="var(--stroke-0, #383838)" stroke-width="0.720919"/>
<path id="Schedule" d="M110.33 2.23718V4.61966L111.919 5.41383M114.301 4.61966C114.301 6.81268 112.523 8.59048 110.33 8.59048C108.137 8.59048 106.36 6.81268 106.36 4.61966C106.36 2.42664 108.137 0.64885 110.33 0.64885C112.523 0.64885 114.301 2.42664 114.301 4.61966Z" stroke="var(--stroke-0, #777777)" stroke-width="0.720919" stroke-linecap="round" stroke-linejoin="round"/>
<g id="More">
<path d="M135.404 5.12492C135.683 5.12492 135.909 4.89866 135.909 4.61955C135.909 4.34044 135.683 4.11417 135.404 4.11417C135.125 4.11417 134.899 4.34044 134.899 4.61955C134.899 4.89866 135.125 5.12492 135.404 5.12492Z" fill="var(--fill-0, #777777)"/>
<path d="M135.404 1.58729C135.683 1.58729 135.909 1.36102 135.909 1.08191C135.909 0.802801 135.683 0.576537 135.404 0.576537C135.125 0.576537 134.899 0.802801 134.899 1.08191C134.899 1.36102 135.125 1.58729 135.404 1.58729Z" fill="var(--fill-0, #777777)"/>
<path d="M135.404 8.66256C135.683 8.66256 135.909 8.43629 135.909 8.15718C135.909 7.87807 135.683 7.65181 135.404 7.65181C135.125 7.65181 134.899 7.87807 134.899 8.15718C134.899 8.43629 135.125 8.66256 135.404 8.66256Z" fill="var(--fill-0, #777777)"/>
<path d="M135.404 5.12492C135.683 5.12492 135.909 4.89866 135.909 4.61955C135.909 4.34044 135.683 4.11417 135.404 4.11417C135.125 4.11417 134.899 4.34044 134.899 4.61955C134.899 4.89866 135.125 5.12492 135.404 5.12492Z" stroke="var(--stroke-0, #777777)" stroke-width="0.43318" stroke-linecap="round" stroke-linejoin="round"/>
<path d="M135.404 1.58729C135.683 1.58729 135.909 1.36102 135.909 1.08191C135.909 0.802801 135.683 0.576537 135.404 0.576537C135.125 0.576537 134.899 0.802801 134.899 1.08191C134.899 1.36102 135.125 1.58729 135.404 1.58729Z" stroke="var(--stroke-0, #777777)" stroke-width="0.43318" stroke-linecap="round" stroke-linejoin="round"/>
<path d="M135.404 8.66256C135.683 8.66256 135.909 8.43629 135.909 8.15718C135.909 7.87807 135.683 7.65181 135.404 7.65181C135.125 7.65181 134.899 7.87807 134.899 8.15718C134.899 8.43629 135.125 8.66256 135.404 8.66256Z" stroke="var(--stroke-0, #777777)" stroke-width="0.43318" stroke-linecap="round" stroke-linejoin="round"/>
</g>
</g>
</svg>
