<svg preserveAspectRatio="none" width="100%" height="100%" overflow="visible" style="display: block;" viewBox="0 0 73.2118 70.9153" fill="none" xmlns="http://www.w3.org/2000/svg">
<g id="Group">
<path id="Vector" d="M30.9577 51.8345C21.5202 50.6906 14.8711 43.8984 14.8711 35.1044C14.8711 31.5297 16.1581 27.6689 18.3029 25.0951C17.3735 22.7357 17.5165 17.731 18.5889 15.6576C21.4487 15.3001 25.3095 16.8015 27.5974 18.8749C30.3142 18.017 33.174 17.588 36.6774 17.588C40.1807 17.588 43.0405 18.017 45.6144 18.8034C47.8307 16.8015 51.763 15.3001 54.6229 15.6576C55.6238 17.588 55.7667 22.5927 54.8373 25.0236C57.1252 27.7404 58.3406 31.3867 58.3406 35.1044C58.3406 43.8984 51.6915 50.5476 42.111 51.763C44.5419 53.3359 46.1863 56.7677 46.1863 60.7V68.1356C46.1863 70.2805 47.9737 71.4958 50.1186 70.6379C63.0594 65.7047 73.2118 52.7639 73.2118 36.7489C73.2118 16.5155 56.7677 1.78277e-07 36.5344 0C16.301 -1.78277e-07 1.78278e-07 16.5155 0 36.7489C-1.3985e-07 52.621 10.0809 65.7762 23.6651 70.7094C25.5955 71.4243 27.4544 70.1375 27.4544 68.2071V62.4874C26.4535 62.9164 25.1665 63.2024 24.0226 63.2024C19.3039 63.2024 16.5155 60.6285 14.5136 55.8382C13.7272 53.9079 12.8693 52.7639 11.2249 52.5495C10.3669 52.478 10.0809 52.1205 10.0809 51.6915C10.0809 50.8335 11.5108 50.1901 12.9408 50.1901C15.0142 50.1901 16.8015 51.4771 18.6604 54.1224C20.0904 56.1958 21.5917 57.1252 23.3791 57.1252C25.1665 57.1252 26.3104 56.4818 27.9549 54.8373C29.1703 53.6219 30.0997 52.5495 30.9577 51.8345Z" fill="var(--fill-0, #CCBEA5)" fill-opacity="0.5"/>
</g>
</svg>
