<svg preserveAspectRatio="none" width="100%" height="100%" overflow="visible" style="display: block;" viewBox="0 0 15.8614 15.8614" fill="none" xmlns="http://www.w3.org/2000/svg">
<g id="Logo">
<circle id="Logo Background" cx="7.93072" cy="7.93072" r="7.93072" fill="var(--fill-0, #323131)"/>
<g id="globe-earth-2-svgrepo-com 1">
<path id="Vector" d="M7.93051 12.6265C10.5239 12.6265 12.6263 10.5242 12.6263 7.93072C12.6263 5.33729 10.5239 3.2349 7.93051 3.2349C5.33708 3.2349 3.23469 5.33729 3.23469 7.93072C3.23469 10.5242 5.33708 12.6265 7.93051 12.6265Z" stroke="var(--stroke-0, #0B0B0B)" stroke-width="0.834812" stroke-linecap="round" stroke-linejoin="round"/>
<path id="Vector_2" d="M8.71336 4.8001H8.97424C9.251 4.8001 9.51642 4.69016 9.71211 4.49446C9.90781 4.29876 10.0178 4.03334 10.0178 3.75658C6.05239 2.29566 4.01754 5.06098 3.49578 6.62625L5.66995 9.28356C5.78212 9.42079 5.84369 9.59297 5.84369 9.77036C5.84369 10.1951 6.19483 10.5394 6.61955 10.5394C7.05156 10.5394 7.40896 10.8901 7.40896 11.3221V12.6265C8.53961 12.5393 10.9569 12.0004 11.583 10.5394H11.0613C10.7845 10.5394 10.5191 10.4295 10.3234 10.2338C10.1277 10.0381 10.0178 9.77268 10.0178 9.49592C10.0178 9.21916 9.90781 8.95374 9.71211 8.75804C9.51642 8.56235 9.251 8.4524 8.97424 8.4524H7.93072C7.65396 8.4524 7.38854 8.34246 7.19285 8.14677C6.99715 7.95107 6.88721 7.68565 6.88721 7.40889V6.88713C6.88721 6.74875 6.94218 6.61604 7.04003 6.51819C7.13787 6.42034 7.27059 6.36537 7.40896 6.36537C7.54734 6.36537 7.68005 6.3104 7.7779 6.21255C7.87575 6.11471 7.93072 5.98199 7.93072 5.84362V5.58274C7.93072 5.37517 8.01318 5.1761 8.15995 5.02933C8.30672 4.88256 8.50579 4.8001 8.71336 4.8001Z" fill="var(--fill-0, #0B0B0B)" stroke="var(--stroke-0, #0B0B0B)" stroke-width="0.834812" stroke-linecap="round" stroke-linejoin="round"/>
</g>
</g>
</svg>
