<svg preserveAspectRatio="none" width="100%" height="100%" overflow="visible" style="display: block;" viewBox="0 0 15.8614 15.8614" fill="none" xmlns="http://www.w3.org/2000/svg">
<g id="Logo">
<circle id="Logo Background" cx="7.93072" cy="7.93072" r="7.93072" fill="var(--fill-0, #323131)"/>
<g id="globe-earth-2-svgrepo-com 1">
<path id="Vector" d="M7.93051 12.6262C10.5239 12.6262 12.6263 10.5238 12.6263 7.93036C12.6263 5.33693 10.5239 3.23454 7.93051 3.23454C5.33708 3.23454 3.23469 5.33693 3.23469 7.93036C3.23469 10.5238 5.33708 12.6262 7.93051 12.6262Z" stroke="var(--stroke-0, #0B0B0B)" stroke-width="0.834812" stroke-linecap="round" stroke-linejoin="round"/>
<path id="Vector_2" d="M8.71336 4.79986H8.97424C9.251 4.79986 9.51642 4.68992 9.71211 4.49422C9.90781 4.29852 10.0178 4.0331 10.0178 3.75634C6.05239 2.29542 4.01754 5.06074 3.49578 6.62601L5.66995 9.28332C5.78212 9.42055 5.84369 9.59273 5.84369 9.77012C5.84369 10.1948 6.19483 10.5392 6.61955 10.5392C7.05156 10.5392 7.40896 10.8898 7.40896 11.3218V12.6262C8.53961 12.5391 10.9569 12.0001 11.583 10.5392H11.0613C10.7845 10.5392 10.5191 10.4293 10.3234 10.2336C10.1277 10.0379 10.0178 9.77244 10.0178 9.49568C10.0178 9.21892 9.90781 8.9535 9.71211 8.7578C9.51642 8.56211 9.251 8.45216 8.97424 8.45216H7.93072C7.65396 8.45216 7.38854 8.34222 7.19285 8.14652C6.99715 7.95083 6.88721 7.68541 6.88721 7.40865V6.88689C6.88721 6.74851 6.94218 6.6158 7.04003 6.51795C7.13787 6.4201 7.27059 6.36513 7.40896 6.36513C7.54734 6.36513 7.68005 6.31016 7.7779 6.21231C7.87575 6.11446 7.93072 5.98175 7.93072 5.84338V5.5825C7.93072 5.37493 8.01318 5.17586 8.15995 5.02909C8.30672 4.88232 8.50579 4.79986 8.71336 4.79986Z" fill="var(--fill-0, #0B0B0B)" stroke="var(--stroke-0, #0B0B0B)" stroke-width="0.834812" stroke-linecap="round" stroke-linejoin="round"/>
</g>
</g>
</svg>
