<svg preserveAspectRatio="none" width="100%" height="100%" overflow="visible" style="display: block;" viewBox="0 0 15.8692 15.8692" fill="none" xmlns="http://www.w3.org/2000/svg">
<g id="Logo">
<circle id="Logo Background" cx="7.93459" cy="7.93459" r="7.93459" fill="var(--fill-0, #323131)"/>
<g id="globe-earth-2-svgrepo-com 1">
<path id="Vector" d="M7.93457 12.6327C10.5293 12.6327 12.6327 10.5292 12.6327 7.93454C12.6327 5.33985 10.5293 3.23643 7.93457 3.23643C5.33987 3.23643 3.23645 5.33985 3.23645 7.93454C3.23645 10.5292 5.33987 12.6327 7.93457 12.6327Z" stroke="var(--stroke-0, #0B0B0B)" stroke-width="0.83522" stroke-linecap="round" stroke-linejoin="round"/>
<path id="Vector_2" d="M8.71742 4.80258H8.97843C9.25532 4.80258 9.52087 4.69259 9.71667 4.4968C9.91246 4.301 10.0225 4.03545 10.0225 3.75856C6.05516 2.29693 4.01931 5.06359 3.4973 6.62963L5.67253 9.28824C5.78476 9.42553 5.84636 9.59779 5.84636 9.77527C5.84636 10.2002 6.19767 10.5447 6.62259 10.5447C7.05481 10.5447 7.41239 10.8955 7.41239 11.3277V12.6328C8.54359 12.5456 10.9621 12.0064 11.5885 10.5447H11.0665C10.7896 10.5447 10.524 10.4347 10.3282 10.2389C10.1324 10.0431 10.0225 9.77759 10.0225 9.5007C10.0225 9.2238 9.91246 8.95825 9.71667 8.76246C9.52087 8.56667 9.25532 8.45667 8.97843 8.45667H7.9344C7.65751 8.45667 7.39196 8.34668 7.19617 8.15088C7.00038 7.95509 6.89038 7.68954 6.89038 7.41265V6.89063C6.89038 6.75219 6.94538 6.61941 7.04327 6.52152C7.14117 6.42362 7.27395 6.36862 7.41239 6.36862C7.55084 6.36862 7.68361 6.31362 7.78151 6.21573C7.87941 6.11783 7.9344 5.98506 7.9344 5.84661V5.5856C7.9344 5.37793 8.0169 5.17877 8.16375 5.03193C8.31059 4.88508 8.50975 4.80258 8.71742 4.80258Z" fill="var(--fill-0, #0B0B0B)" stroke="var(--stroke-0, #0B0B0B)" stroke-width="0.83522" stroke-linecap="round" stroke-linejoin="round"/>
</g>
</g>
</svg>
