<svg preserveAspectRatio="none" width="100%" height="100%" overflow="visible" style="display: block;" viewBox="0 0 15.8614 15.8614" fill="none" xmlns="http://www.w3.org/2000/svg">
<g id="Logo">
<circle id="Logo Background" cx="7.93072" cy="7.93072" r="7.93072" fill="var(--fill-0, #323131)"/>
<g id="globe-earth-2-svgrepo-com 1">
<path id="Vector" d="M7.93051 12.6268C10.5239 12.6268 12.6263 10.5244 12.6263 7.93097C12.6263 5.33753 10.5239 3.23514 7.93051 3.23514C5.33708 3.23514 3.23469 5.33753 3.23469 7.93097C3.23469 10.5244 5.33708 12.6268 7.93051 12.6268Z" stroke="var(--stroke-0, #0B0B0B)" stroke-width="0.834812" stroke-linecap="round" stroke-linejoin="round"/>
<path id="Vector_2" d="M8.71336 4.80046H8.97424C9.251 4.80046 9.51642 4.69052 9.71211 4.49483C9.90781 4.29913 10.0178 4.03371 10.0178 3.75695C6.05239 2.29603 4.01754 5.06134 3.49578 6.62662L5.66995 9.28393C5.78212 9.42115 5.84369 9.59333 5.84369 9.77073C5.84369 10.1954 6.19483 10.5398 6.61955 10.5398C7.05156 10.5398 7.40896 10.8904 7.40896 11.3224V12.6268C8.53961 12.5397 10.9569 12.0007 11.583 10.5398H11.0613C10.7845 10.5398 10.5191 10.4299 10.3234 10.2342C10.1277 10.0385 10.0178 9.77304 10.0178 9.49628C10.0178 9.21953 9.90781 8.9541 9.71211 8.75841C9.51642 8.56271 9.251 8.45277 8.97424 8.45277H7.93072C7.65396 8.45277 7.38854 8.34283 7.19285 8.14713C6.99715 7.95143 6.88721 7.68601 6.88721 7.40925V6.88749C6.88721 6.74912 6.94218 6.61641 7.04003 6.51856C7.13787 6.42071 7.27059 6.36574 7.40896 6.36574C7.54734 6.36574 7.68005 6.31077 7.7779 6.21292C7.87575 6.11507 7.93072 5.98236 7.93072 5.84398V5.5831C7.93072 5.37553 8.01318 5.17647 8.15995 5.02969C8.30672 4.88292 8.50579 4.80046 8.71336 4.80046Z" fill="var(--fill-0, #0B0B0B)" stroke="var(--stroke-0, #0B0B0B)" stroke-width="0.834812" stroke-linecap="round" stroke-linejoin="round"/>
</g>
</g>
</svg>
