<svg preserveAspectRatio="none" width="100%" height="100%" overflow="visible" style="display: block;" viewBox="0 0 19.1921 19.1921" fill="none" xmlns="http://www.w3.org/2000/svg">
<g id="Symbol">
<ellipse id="Background" cx="9.59605" cy="9.59605" rx="9.59605" ry="9.59605" fill="var(--fill-0, #FF5F57)" fill-opacity="0.3"/>
<g id="Clipboard" clip-path="url(#clip0_0_13)">
<path id="Icon" d="M11.995 4.79803H13.1945C13.5126 4.79803 13.8177 4.9244 14.0427 5.14935C14.2676 5.37431 14.394 5.6794 14.394 5.99753V14.3941C14.394 14.7122 14.2676 15.0173 14.0427 15.2423C13.8177 15.4672 13.5126 15.5936 13.1945 15.5936H5.99745C5.67932 15.5936 5.37422 15.4672 5.14927 15.2423C4.92432 15.0173 4.79795 14.7122 4.79795 14.3941V5.99753C4.79795 5.6794 4.92432 5.37431 5.14927 5.14935C5.37422 4.9244 5.67932 4.79803 5.99745 4.79803H7.19696M7.79671 3.59852H11.3952C11.7265 3.59852 11.995 3.86704 11.995 4.19827V5.39778C11.995 5.72901 11.7265 5.99753 11.3952 5.99753H7.79671C7.46548 5.99753 7.19696 5.72901 7.19696 5.39778V4.19827C7.19696 3.86704 7.46548 3.59852 7.79671 3.59852Z" stroke="var(--stroke-0, #FF5F57)" stroke-width="1.43941" stroke-linecap="round" stroke-linejoin="round"/>
</g>
</g>
<defs>
<clipPath id="clip0_0_13">
<rect width="14.3941" height="14.3941" fill="white" transform="translate(2.39893 2.39902)"/>
</clipPath>
</defs>
</svg>
