<svg preserveAspectRatio="none" width="100%" height="100%" overflow="visible" style="display: block;" viewBox="0 0 876.3 352.841" fill="none" xmlns="http://www.w3.org/2000/svg">
<g id="Background Lines" clip-path="url(#clip0_0_17)">
<line id="Line 5" x1="34.907" y1="8.66753e-05" x2="34.907" y2="352.842" stroke="var(--stroke-0, #323232)" stroke-width="0.174099" stroke-dasharray="2.32 2.32"/>
<line id="Line 6" x1="104.547" y1="8.66753e-05" x2="104.547" y2="352.842" stroke="var(--stroke-0, #323232)" stroke-width="0.174099" stroke-dasharray="2.32 2.32"/>
<line id="Line 7" x1="174.187" y1="8.66753e-05" x2="174.187" y2="352.842" stroke="var(--stroke-0, #323232)" stroke-width="0.174099" stroke-dasharray="2.32 2.32"/>
<line id="Line 8" x1="243.826" y1="8.66753e-05" x2="243.826" y2="352.842" stroke="var(--stroke-0, #323232)" stroke-width="0.174099" stroke-dasharray="2.32 2.32"/>
<line id="Line 9" x1="313.466" y1="8.66753e-05" x2="313.466" y2="352.842" stroke="var(--stroke-0, #323232)" stroke-width="0.174099" stroke-dasharray="2.32 2.32"/>
<line id="Line 10" x1="383.106" y1="8.66753e-05" x2="383.106" y2="352.842" stroke="var(--stroke-0, #323232)" stroke-width="0.174099" stroke-dasharray="2.32 2.32"/>
<line id="Line 11" x1="452.745" y1="8.66753e-05" x2="452.745" y2="352.842" stroke="var(--stroke-0, #323232)" stroke-width="0.174099" stroke-dasharray="2.32 2.32"/>
<line id="Line 12" x1="522.385" y1="8.66753e-05" x2="522.385" y2="352.842" stroke="var(--stroke-0, #323232)" stroke-width="0.174099" stroke-dasharray="2.32 2.32"/>
<line id="Line 13" x1="592.025" y1="8.66753e-05" x2="592.025" y2="352.842" stroke="var(--stroke-0, #323232)" stroke-width="0.174099" stroke-dasharray="2.32 2.32"/>
<line id="Line 14" x1="661.665" y1="8.66753e-05" x2="661.665" y2="352.842" stroke="var(--stroke-0, #323232)" stroke-width="0.174099" stroke-dasharray="2.32 2.32"/>
<line id="Line 15" x1="731.304" y1="8.66753e-05" x2="731.304" y2="352.842" stroke="var(--stroke-0, #323232)" stroke-width="0.174099" stroke-dasharray="2.32 2.32"/>
<line id="Line 16" x1="800.944" y1="8.66753e-05" x2="800.944" y2="352.842" stroke="var(--stroke-0, #323232)" stroke-width="0.174099" stroke-dasharray="2.32 2.32"/>
<line id="Line 17" x1="870.584" y1="8.66753e-05" x2="870.584" y2="352.842" stroke="var(--stroke-0, #323232)" stroke-width="0.174099" stroke-dasharray="2.32 2.32"/>
</g>
<defs>
<clipPath id="clip0_0_17">
<rect width="876.3" height="352.841" fill="white"/>
</clipPath>
</defs>
</svg>
