<svg preserveAspectRatio="none" width="100%" height="100%" overflow="visible" style="display: block;" viewBox="0 0 159.156 81.6185" fill="none" xmlns="http://www.w3.org/2000/svg">
<g id="Blog Illustration" clip-path="url(#clip0_0_30)">
<rect width="159.156" height="81.6185" fill="#989177" fill-opacity="0.05"/>
<path id="Blog Image Background" d="M159.156 0H0V81.6185H159.156V0Z" fill="var(--fill-0, #989177)" fill-opacity="0.05"/>
<g id="Blog Image">
<path id="Vector" d="M78.7619 69.3761C94.8205 69.3761 107.839 56.358 107.839 40.2995C107.839 24.2409 94.8205 11.2229 78.7619 11.2229C62.7034 11.2229 49.6853 24.2409 49.6853 40.2995C49.6853 56.358 62.7034 69.3761 78.7619 69.3761Z" fill="var(--fill-0, #CCBEA5)" fill-opacity="0.5"/>
<g id="Group">
<path id="Vector_2" d="M90.8985 20.7044H66.6258C65.6484 20.7044 64.856 21.4968 64.856 22.4743V54.3322C64.856 55.3096 65.6484 56.102 66.6258 56.102H90.8985C91.876 56.102 92.6684 55.3096 92.6684 54.3322V22.4743C92.6684 21.4968 91.876 20.7044 90.8985 20.7044Z" fill="var(--fill-0, #2E4636)"/>
<path id="Vector_3" d="M89.1284 23.4856H68.3955C67.837 23.4856 67.3842 23.9384 67.3842 24.497C67.3842 25.0556 67.837 25.5084 68.3955 25.5084H89.1284C89.687 25.5084 90.1398 25.0556 90.1398 24.497C90.1398 23.9384 89.687 23.4856 89.1284 23.4856Z" fill="var(--fill-0, #F4F1EC)"/>
<path id="Vector_4" d="M89.3812 27.5312H68.1427C67.7238 27.5312 67.3842 27.8708 67.3842 28.2897C67.3842 28.7086 67.7238 29.0482 68.1427 29.0482H89.3812C89.8002 29.0482 90.1398 28.7086 90.1398 28.2897C90.1398 27.8708 89.8002 27.5312 89.3812 27.5312Z" fill="var(--fill-0, #3E6250)"/>
<path id="Vector_5" d="M84.3244 30.818H68.1427C67.7238 30.818 67.3842 31.1576 67.3842 31.5765C67.3842 31.9955 67.7238 32.3351 68.1427 32.3351H84.3244C84.7434 32.3351 85.083 31.9955 85.083 31.5765C85.083 31.1576 84.7434 30.818 84.3244 30.818Z" fill="var(--fill-0, #3E6250)"/>
<path id="Vector_6" d="M86.8528 34.1049H68.1427C67.7238 34.1049 67.3842 34.4445 67.3842 34.8634C67.3842 35.2823 67.7238 35.6219 68.1427 35.6219H86.8528C87.2718 35.6219 87.6114 35.2823 87.6114 34.8634C87.6114 34.4445 87.2718 34.1049 86.8528 34.1049Z" fill="var(--fill-0, #3E6250)"/>
</g>
<g id="Group_2">
<path id="Vector_7" d="M78.7617 66.2156C82.2527 66.2156 85.0827 63.3856 85.0827 59.8946C85.0827 56.4037 82.2527 53.5736 78.7617 53.5736C75.2707 53.5736 72.4407 56.4037 72.4407 59.8946C72.4407 63.3856 75.2707 66.2156 78.7617 66.2156Z" fill="var(--fill-0, #C97B4A)"/>
<path id="Vector_8" d="M78.7621 56.8603V62.4228" stroke="var(--stroke-0, #F4F1EC)" stroke-width="1.2642" stroke-linecap="round"/>
<path id="Vector_9" d="M76.7393 60.4002L78.762 62.6758L80.7847 60.4002" stroke="var(--stroke-0, #F4F1EC)" stroke-width="1.2642" stroke-linecap="round" stroke-linejoin="round"/>
</g>
<path id="Vector_10" d="M44.6286 23.9914C45.0475 23.9914 45.3871 23.6518 45.3871 23.2329C45.3871 22.814 45.0475 22.4744 44.6286 22.4744C44.2097 22.4744 43.8701 22.814 43.8701 23.2329C43.8701 23.6518 44.2097 23.9914 44.6286 23.9914Z" fill="var(--fill-0, #C97B4A)"/>
<path id="Vector_11" d="M114.16 26.3932C114.509 26.3932 114.792 26.1102 114.792 25.7611C114.792 25.412 114.509 25.129 114.16 25.129C113.811 25.129 113.528 25.412 113.528 25.7611C113.528 26.1102 113.811 26.3932 114.16 26.3932Z" fill="var(--fill-0, #3E6250)"/>
<path id="Vector_12" d="M111.631 56.7342C111.98 56.7342 112.263 56.4512 112.263 56.1021C112.263 55.753 111.98 55.47 111.631 55.47C111.282 55.47 110.999 55.753 110.999 56.1021C110.999 56.4512 111.282 56.7342 111.631 56.7342Z" fill="var(--fill-0, #2E4636)"/>
</g>
</g>
<defs>
<clipPath id="clip0_0_30">
<rect width="159.156" height="81.6185" fill="white"/>
</clipPath>
</defs>
</svg>
