<svg preserveAspectRatio="none" width="100%" height="100%" overflow="visible" style="display: block;" viewBox="0 0 9.5911 12.7268" fill="none" xmlns="http://www.w3.org/2000/svg">
<g id="Logo">
<path id="Vector" d="M3.63708 8.48892C5.64579 9.0595 7.69603 7.85299 8.21643 5.79411C8.73682 3.73523 7.53031 1.60363 5.5216 1.03304C3.51289 0.462461 1.46265 1.66897 0.942254 3.72785C0.421857 5.78673 1.62837 7.91833 3.63708 8.48892Z" stroke="var(--stroke-0, #2E4636)" stroke-width="0.854634"/>
<path id="Vector_2" d="M6.78204 7.79233C6.64935 7.5579 6.35716 7.47224 6.12942 7.601C5.90167 7.72975 5.82461 8.02417 5.9573 8.2586L6.36967 8.02546L6.78204 7.79233ZM8.34414 12.4755C8.47683 12.71 8.76902 12.7956 8.99677 12.6669C9.22451 12.5381 9.30157 12.2437 9.16888 12.0093L8.75651 12.2424L8.34414 12.4755ZM6.36967 8.02546L5.9573 8.2586L8.34414 12.4755L8.75651 12.2424L9.16888 12.0093L6.78204 7.79233L6.36967 8.02546Z" fill="var(--stroke-0, #2E4636)"/>
</g>
</svg>
