<svg width="98" height="73" viewBox="0 0 98 73" fill="none" xmlns="http://www.w3.org/2000/svg">

<g id="Pages">
<g id="Page 5">
<rect width="1440" height="780" transform="translate(-943.941 -300.113)" fill="#050506"/>
<g id="How It Works">
<rect width="1440" height="718" transform="translate(-943.941 -238.113)" fill="#050506"/>
<g id="Content">
<g id="Workflow Animation Spacer">
<g id="5.0 Illustration">
<g id="Mock Blog">
<g clip-path="url(#clip0_235_21)">
<rect x="-110.185" y="-13.2632" width="319.332" height="310.15" rx="20.4046" fill="#0B0B0B"/>
<g id="Frame">
<rect width="319.332" height="99.9827" transform="translate(-110.185 -13.2632)" fill="#989177" fill-opacity="0.05"/>
<g id="Blog Image">
<path id="Vector" d="M49.7607 72.4364C69.7635 72.4364 85.9789 56.221 85.9789 36.2182C85.9789 16.2154 69.7635 0 49.7607 0C29.7579 0 13.5425 16.2154 13.5425 36.2182C13.5425 56.221 29.7579 72.4364 49.7607 72.4364Z" fill="#CCBEA5" fill-opacity="0.5"/>
<g id="Group">
<path id="Vector_2" d="M24.4583 28.1338L49.6535 23.4097L74.8488 28.1338V48.6049L49.6535 43.8808L24.4583 48.6049V28.1338Z" fill="#2E4636"/>
<path id="Vector_3" d="M26.0334 29.3935L48.3943 25.2993V42.6211L26.0334 47.0302V29.3935Z" fill="#F4F1EC"/>
<path id="Vector_4" d="M73.2744 29.3935L50.9136 25.2993V42.6211L73.2744 47.0302V29.3935Z" fill="#F4F1EC"/>
<path id="Vector_5" d="M29.1826 32.8574L44.9297 30.6528" stroke="#3E6250" stroke-width="1.25976" stroke-linecap="round"/>
<path id="Vector_6" d="M29.1826 36.0073L44.9297 33.8027" stroke="#3E6250" stroke-width="1.25976" stroke-linecap="round"/>
<path id="Vector_7" d="M29.1826 39.1567L44.9297 36.9521" stroke="#3E6250" stroke-width="1.25976" stroke-linecap="round"/>
<path id="Vector_8" d="M54.3779 30.6528L70.125 32.8574" stroke="#3E6250" stroke-width="1.25976" stroke-linecap="round"/>
<path id="Vector_9" d="M54.3779 33.8027L70.125 36.0073" stroke="#3E6250" stroke-width="1.25976" stroke-linecap="round"/>
<path id="Vector_10" d="M54.3779 36.9521L70.125 39.1567" stroke="#3E6250" stroke-width="1.25976" stroke-linecap="round"/>
</g>
<g id="Group_2">
<path id="Vector_11" d="M76.7561 23.5293C81.3764 24.7673 86.1255 22.0254 87.3635 17.4051C88.6015 12.7848 85.8596 8.03575 81.2393 6.79775C76.619 5.55975 71.8699 8.30163 70.6319 12.9219C69.3939 17.5422 72.1358 22.2913 76.7561 23.5293Z" stroke="#C97B4A" stroke-width="2.20459"/>
<path id="Vector_12" d="M83.2288 22.4922L88.5735 31.7495" stroke="#C97B4A" stroke-width="2.51953" stroke-linecap="round"/>
</g>
<path id="Vector_13" d="M0.944823 56.8467C1.46663 56.8467 1.88965 56.4237 1.88965 55.9019C1.88965 55.38 1.46663 54.957 0.944823 54.957C0.423012 54.957 0 55.38 0 55.9019C0 56.4237 0.423012 56.8467 0.944823 56.8467Z" fill="#C97B4A"/>
<path id="Vector_14" d="M5.66894 59.6812C6.01682 59.6812 6.29883 59.3991 6.29883 59.0513C6.29883 58.7034 6.01682 58.4214 5.66894 58.4214C5.32107 58.4214 5.03906 58.7034 5.03906 59.0513C5.03906 59.3991 5.32107 59.6812 5.66894 59.6812Z" fill="#3E6250"/>
<path id="Vector_15" d="M97.0015 58.2637C97.4363 58.2637 97.7888 57.9112 97.7888 57.4763C97.7888 57.0415 97.4363 56.689 97.0015 56.689C96.5666 56.689 96.2141 57.0415 96.2141 57.4763C96.2141 57.9112 96.5666 58.2637 97.0015 58.2637Z" fill="#2E4636"/>
</g>
</g>
</g>
</g>
</g>
</g>
</g>
</g>
</g>
</g>
<defs>
<clipPath id="clip0_235_21">
<rect x="-110.185" y="-13.2632" width="319.332" height="310.15" rx="20.4046" fill="white"/>
</clipPath>
</defs>
</svg>
