<svg preserveAspectRatio="none" width="100%" height="100%" overflow="visible" style="display: block;" viewBox="0 0 159.156 81.6185" fill="none" xmlns="http://www.w3.org/2000/svg">
<g id="Blog Illustration" clip-path="url(#clip0_0_4)">
<rect width="159.156" height="81.6185" fill="#989177" fill-opacity="0.05"/>
<path id="Blog Image Background" d="M159.156 0H0V81.6185H159.156V0Z" fill="var(--fill-0, #989177)" fill-opacity="0.05"/>
<g id="Blog Image" opacity="0.7">
<path id="Vector" d="M80.0578 69.3761C95.5034 69.3761 108.025 56.358 108.025 40.2995C108.025 24.2409 95.5034 11.2229 80.0578 11.2229C64.6121 11.2229 52.091 24.2409 52.091 40.2995C52.091 56.358 64.6121 69.3761 80.0578 69.3761Z" fill="var(--fill-0, #CCBEA5)" fill-opacity="0.5"/>
<g id="Group">
<path id="Vector_2" d="M80.3009 23.2326H50.6317C48.7514 23.2326 47.2271 24.8174 47.2271 26.7724C47.2271 28.7273 48.7514 30.3121 50.6317 30.3121H80.3009C82.1812 30.3121 83.7055 28.7273 83.7055 26.7724C83.7055 24.8174 82.1812 23.2326 80.3009 23.2326Z" fill="var(--fill-0, #2E4636)"/>
<path id="Vector_3" d="M51.1181 27.6574C51.5882 27.6574 51.9693 27.2611 51.9693 26.7724C51.9693 26.2837 51.5882 25.8875 51.1181 25.8875C50.648 25.8875 50.267 26.2837 50.267 26.7724C50.267 27.2611 50.648 27.6574 51.1181 27.6574Z" fill="var(--fill-0, #F4F1EC)" fill-opacity="0.05"/>
<path id="Vector_4" d="M74.7076 25.508H55.2524C54.5809 25.508 54.0365 26.074 54.0365 26.7722C54.0365 27.4704 54.5809 28.0364 55.2524 28.0364H74.7076C75.3791 28.0364 75.9235 27.4704 75.9235 26.7722C75.9235 26.074 75.3791 25.508 74.7076 25.508Z" fill="var(--fill-0, #F4F1EC)" fill-opacity="0.05"/>
</g>
<g id="Group_2">
<path id="Vector_5" d="M76.8963 33.346H56.4684C54.7223 33.346 53.3069 34.8176 53.3069 36.6329C53.3069 38.4482 54.7223 39.9198 56.4684 39.9198H76.8963C78.6423 39.9198 80.0578 38.4482 80.0578 36.6329C80.0578 34.8176 78.6423 33.346 76.8963 33.346Z" fill="var(--fill-0, #3E6250)"/>
<path id="Vector_6" d="M56.9545 37.3918C57.3575 37.3918 57.6841 37.0522 57.6841 36.6333C57.6841 36.2143 57.3575 35.8747 56.9545 35.8747C56.5516 35.8747 56.225 36.2143 56.225 36.6333C56.225 37.0522 56.5516 37.3918 56.9545 37.3918Z" fill="var(--fill-0, #F4F1EC)" fill-opacity="0.05"/>
<path id="Vector_7" d="M74.3429 35.4953H60.7243C60.1199 35.4953 59.6299 36.0047 59.6299 36.6331C59.6299 37.2614 60.1199 37.7708 60.7243 37.7708H74.3429C74.9473 37.7708 75.4372 37.2614 75.4372 36.6331C75.4372 36.0047 74.9473 35.4953 74.3429 35.4953Z" fill="var(--fill-0, #F4F1EC)" fill-opacity="0.05"/>
</g>
<g id="Group_3">
<path id="Vector_8" d="M74.7079 42.9544H62.3052C60.6935 42.9544 59.3869 44.3128 59.3869 45.9885C59.3869 47.6642 60.6935 49.0226 62.3052 49.0226H74.7079C76.3196 49.0226 77.6262 47.6642 77.6262 45.9885C77.6262 44.3128 76.3196 42.9544 74.7079 42.9544Z" fill="var(--fill-0, #C97B4A)"/>
<path id="Vector_9" d="M62.791 46.7468C63.1939 46.7468 63.5206 46.4072 63.5206 45.9882C63.5206 45.5693 63.1939 45.2297 62.791 45.2297C62.3881 45.2297 62.0614 45.5693 62.0614 45.9882C62.0614 46.4072 62.3881 46.7468 62.791 46.7468Z" fill="var(--fill-0, #F4F1EC)" fill-opacity="0.05"/>
<path id="Vector_10" d="M73.9779 44.9769H66.1959C65.6586 44.9769 65.2231 45.4297 65.2231 45.9883C65.2231 46.5468 65.6586 46.9996 66.1959 46.9996H73.9779C74.5152 46.9996 74.9507 46.5468 74.9507 45.9883C74.9507 45.4297 74.5152 44.9769 73.9779 44.9769Z" fill="var(--fill-0, #F4F1EC)" fill-opacity="0.05"/>
</g>
<g id="Group_4">
<path id="Vector_11" d="M82.7767 46.8895C87.3494 48.1884 92.0166 45.4419 93.2013 40.7549C94.3859 36.068 91.6394 31.2156 87.0667 29.9167C82.494 28.6178 77.8268 31.3643 76.6421 36.0512C75.4575 40.7381 78.204 45.5906 82.7767 46.8895Z" stroke="var(--stroke-0, #2E4636)" stroke-width="1.94552"/>
<path id="Vector_12" d="M89.9362 45.3046C89.6341 44.7709 88.969 44.5759 88.4505 44.869C87.9321 45.1621 87.7567 45.8323 88.0587 46.366L88.9975 45.8353L89.9362 45.3046ZM93.4922 55.9656C93.7943 56.4992 94.4594 56.6942 94.9779 56.4011C95.4963 56.108 95.6717 55.4378 95.3697 54.9042L94.431 55.4349L93.4922 55.9656ZM88.9975 45.8353L88.0587 46.366L93.4922 55.9656L94.431 55.4349L95.3697 54.9042L89.9362 45.3046L88.9975 45.8353Z" fill="var(--stroke-0, #2E4636)"/>
</g>
<g id="Group_5">
<path id="Vector_13" d="M96.6317 30.204V22.6188" stroke="var(--stroke-0, #C97B4A)" stroke-width="1.21595" stroke-linecap="round"/>
<path id="Vector_14" d="M94.6865 24.6417L96.632 21.6076L98.5775 24.6417H94.6865Z" fill="var(--fill-0, #C97B4A)"/>
</g>
<path id="Vector_15" d="M43.5793 55.5961C43.9823 55.5961 44.3089 55.2565 44.3089 54.8376C44.3089 54.4186 43.9823 54.079 43.5793 54.079C43.1764 54.079 42.8498 54.4186 42.8498 54.8376C42.8498 55.2565 43.1764 55.5961 43.5793 55.5961Z" fill="var(--fill-0, #C97B4A)"/>
<path id="Vector_16" d="M47.2269 57.8716C47.4955 57.8716 47.7133 57.6452 47.7133 57.3659C47.7133 57.0866 47.4955 56.8602 47.2269 56.8602C46.9583 56.8602 46.7405 57.0866 46.7405 57.3659C46.7405 57.6452 46.9583 57.8716 47.2269 57.8716Z" fill="var(--fill-0, #3E6250)"/>
<path id="Vector_17" d="M112.888 54.2056C113.224 54.2056 113.496 53.9226 113.496 53.5735C113.496 53.2244 113.224 52.9414 112.888 52.9414C112.553 52.9414 112.28 53.2244 112.28 53.5735C112.28 53.9226 112.553 54.2056 112.888 54.2056Z" fill="var(--fill-0, #2E4636)"/>
<path id="Vector_18" d="M116.536 57.8716C116.805 57.8716 117.022 57.6452 117.022 57.3659C117.022 57.0866 116.805 56.8602 116.536 56.8602C116.267 56.8602 116.05 57.0866 116.05 57.3659C116.05 57.6452 116.267 57.8716 116.536 57.8716Z" fill="var(--fill-0, #C97B4A)"/>
</g>
</g>
<defs>
<clipPath id="clip0_0_4">
<rect width="159.156" height="81.6185" fill="white"/>
</clipPath>
</defs>
</svg>
