<svg width="16" height="16" viewBox="0 0 16 16" fill="none" xmlns="http://www.w3.org/2000/svg">

<g id="Pages">
<g id="Page 2">
<rect width="1440" height="780" transform="translate(-378.778 -486.72)" fill="#050506"/>
<g id="How It Works">
<rect width="1440" height="718" transform="translate(-378.778 -424.72)" fill="#050506"/>
<g id="Content">
<g id="Workflow Animation Spacer">
<g id="2.0 Illustration">
<g id="Product">
<g clip-path="url(#clip0_235_21)">
<g id="SERP Analysis">
<g clip-path="url(#clip1_235_21)">
<rect x="-27.9045" y="-186.98" width="530.955" height="296.279" rx="14.1393" fill="#080809"/>
<g id="Website Frame">
<g id="Website 3" clip-path="url(#clip2_235_21)">
<g id="Website Header">
<g id="Logo">
<circle id="Logo Background" cx="7.93072" cy="7.93072" r="7.93072" fill="#323131"/>
<g id="globe-earth-2-svgrepo-com 1">
<path id="Vector" d="M7.93044 12.6267C10.5239 12.6267 12.6263 10.5244 12.6263 7.93093C12.6263 5.3375 10.5239 3.23511 7.93044 3.23511C5.33701 3.23511 3.23462 5.3375 3.23462 7.93093C3.23462 10.5244 5.33701 12.6267 7.93044 12.6267Z" stroke="#0B0B0B" stroke-width="0.834812" stroke-linecap="round" stroke-linejoin="round"/>
<path id="Vector_2" d="M8.71343 4.80012H8.97431C9.25106 4.80012 9.51649 4.69018 9.71218 4.49448C9.90788 4.29878 10.0178 4.03336 10.0178 3.7566C6.05246 2.29568 4.01761 5.061 3.49585 6.62627L5.67001 9.28358C5.78219 9.4208 5.84376 9.59298 5.84376 9.77038C5.84376 10.1951 6.1949 10.5395 6.61961 10.5395C7.05163 10.5395 7.40903 10.8901 7.40903 11.3221V12.6265C8.53968 12.5394 10.957 12.0004 11.5831 10.5395H11.0613C10.7846 10.5395 10.5192 10.4295 10.3235 10.2338C10.1278 10.0381 10.0178 9.7727 10.0178 9.49594C10.0178 9.21918 9.90788 8.95376 9.71218 8.75806C9.51649 8.56236 9.25106 8.45242 8.97431 8.45242H7.93079C7.65403 8.45242 7.38861 8.34248 7.19291 8.14678C6.99722 7.95109 6.88727 7.68566 6.88727 7.40891V6.88715C6.88727 6.74877 6.94225 6.61606 7.04009 6.51821C7.13794 6.42036 7.27065 6.36539 7.40903 6.36539C7.54741 6.36539 7.68012 6.31042 7.77797 6.21257C7.87582 6.11472 7.93079 5.98201 7.93079 5.84363V5.58275C7.93079 5.37519 8.01325 5.17612 8.16002 5.02935C8.30679 4.88257 8.50586 4.80012 8.71343 4.80012Z" fill="#0B0B0B" stroke="#0B0B0B" stroke-width="0.834812" stroke-linecap="round" stroke-linejoin="round"/>
</g>
</g>
</g>
</g>
</g>
</g>
</g>
</g>
</g>
</g>
</g>
</g>
</g>
</g>
</g>
<defs>
<clipPath id="clip0_235_21">
<rect x="-27.9045" y="-186.98" width="738.253" height="297.257" rx="14.1426" fill="white"/>
</clipPath>
<clipPath id="clip1_235_21">
<rect x="-27.9045" y="-186.98" width="530.955" height="296.279" rx="14.1393" fill="white"/>
</clipPath>
<clipPath id="clip2_235_21">
<rect width="491.843" height="46.5509" fill="white" transform="translate(-8.34814)"/>
</clipPath>
</defs>
</svg>
