<svg width="16" height="16" viewBox="0 0 16 16" fill="none" xmlns="http://www.w3.org/2000/svg">

<g id="Pages">
<g id="Page 2">
<rect width="1440" height="780" transform="translate(-378.782 -354.497)" fill="#050506"/>
<g id="How It Works">
<rect width="1440" height="718" transform="translate(-378.782 -292.497)" fill="#050506"/>
<g id="Content">
<g id="Workflow Animation Spacer">
<g id="2.0 Illustration">
<g id="Product">
<g clip-path="url(#clip0_235_21)">
<g id="SERP Analysis">
<g clip-path="url(#clip1_235_21)">
<rect x="-27.9087" y="-54.7578" width="530.955" height="296.279" rx="14.1393" fill="#080809"/>
<g id="Website Frame">
<g id="Website 1" clip-path="url(#clip2_235_21)">
<g id="Website Header">
<g id="Logo">
<circle id="Logo Background" cx="7.93459" cy="7.93459" r="7.93459" fill="#323131"/>
<g id="globe-earth-2-svgrepo-com 1">
<path id="Vector" d="M7.93468 12.6326C10.5294 12.6326 12.6328 10.5291 12.6328 7.93444C12.6328 5.33974 10.5294 3.23633 7.93468 3.23633C5.33999 3.23633 3.23657 5.33974 3.23657 7.93444C3.23657 10.5291 5.33999 12.6326 7.93468 12.6326Z" stroke="#0B0B0B" stroke-width="0.83522" stroke-linecap="round" stroke-linejoin="round"/>
<path id="Vector_2" d="M8.71744 4.80254H8.97844C9.25534 4.80254 9.52089 4.69254 9.71668 4.49675C9.91247 4.30096 10.0225 4.03541 10.0225 3.75851C6.05518 2.29688 4.01933 5.06354 3.49731 6.62958L5.67254 9.28819C5.78477 9.42548 5.84637 9.59774 5.84637 9.77523C5.84637 10.2001 6.19768 10.5447 6.6226 10.5447C7.05483 10.5447 7.41241 10.8955 7.41241 11.3277V12.6327C8.54361 12.5455 10.9621 12.0063 11.5885 10.5447H11.0665C10.7896 10.5447 10.524 10.4347 10.3283 10.2389C10.1325 10.0431 10.0225 9.77754 10.0225 9.50065C10.0225 9.22376 9.91247 8.9582 9.71668 8.76241C9.52089 8.56662 9.25534 8.45662 8.97844 8.45662H7.93442C7.65753 8.45662 7.39198 8.34663 7.19618 8.15084C7.00039 7.95504 6.89039 7.68949 6.89039 7.4126V6.89059C6.89039 6.75214 6.94539 6.61937 7.04329 6.52147C7.14119 6.42357 7.27396 6.36857 7.41241 6.36857C7.55085 6.36857 7.68363 6.31358 7.78153 6.21568C7.87942 6.11778 7.93442 5.98501 7.93442 5.84656V5.58556C7.93442 5.37789 8.01692 5.17872 8.16376 5.03188C8.3106 4.88503 8.50977 4.80254 8.71744 4.80254Z" fill="#0B0B0B" stroke="#0B0B0B" stroke-width="0.83522" stroke-linecap="round" stroke-linejoin="round"/>
</g>
</g>
</g>
</g>
</g>
</g>
</g>
</g>
</g>
</g>
</g>
</g>
</g>
</g>
</g>
<defs>
<clipPath id="clip0_235_21">
<rect x="-27.9087" y="-54.7578" width="738.253" height="297.257" rx="14.1426" fill="white"/>
</clipPath>
<clipPath id="clip1_235_21">
<rect x="-27.9087" y="-54.7578" width="530.955" height="296.279" rx="14.1393" fill="white"/>
</clipPath>
<clipPath id="clip2_235_21">
<rect width="491.843" height="46.5586" fill="white" transform="translate(-8.35229)"/>
</clipPath>
</defs>
</svg>
