<svg width="16" height="16" viewBox="0 0 16 16" fill="none" xmlns="http://www.w3.org/2000/svg">

<g id="Pages">
<g id="Page 2">
<rect width="1440" height="780" transform="translate(-378.778 -552.827)" fill="#050506"/>
<g id="How It Works">
<rect width="1440" height="718" transform="translate(-378.778 -490.827)" fill="#050506"/>
<g id="Content">
<g id="Workflow Animation Spacer">
<g id="2.0 Illustration">
<g id="Product">
<g clip-path="url(#clip0_235_21)">
<g id="SERP Analysis">
<g clip-path="url(#clip1_235_21)">
<rect x="-27.9045" y="-253.087" width="530.955" height="296.279" rx="14.1393" fill="#080809"/>
<g id="Website Frame">
<g id="Website 4" clip-path="url(#clip2_235_21)">
<g id="Website Header">
<g id="Logo">
<circle id="Logo Background" cx="7.93072" cy="7.93072" r="7.93072" fill="#323131"/>
<g id="globe-earth-2-svgrepo-com 1">
<path id="Vector" d="M7.93044 12.6267C10.5239 12.6267 12.6263 10.5244 12.6263 7.93093C12.6263 5.3375 10.5239 3.23511 7.93044 3.23511C5.33701 3.23511 3.23462 5.3375 3.23462 7.93093C3.23462 10.5244 5.33701 12.6267 7.93044 12.6267Z" stroke="#0B0B0B" stroke-width="0.834812" stroke-linecap="round" stroke-linejoin="round"/>
<path id="Vector_2" d="M8.71343 4.80061H8.97431C9.25106 4.80061 9.51649 4.69066 9.71218 4.49497C9.90788 4.29927 10.0178 4.03385 10.0178 3.75709C6.05246 2.29617 4.01761 5.06148 3.49585 6.62676L5.67001 9.28407C5.78219 9.42129 5.84376 9.59347 5.84376 9.77087C5.84376 10.1956 6.1949 10.5399 6.61961 10.5399C7.05163 10.5399 7.40903 10.8906 7.40903 11.3226V12.627C8.53968 12.5398 10.957 12.0009 11.5831 10.5399H11.0613C10.7846 10.5399 10.5192 10.43 10.3235 10.2343C10.1278 10.0386 10.0178 9.77318 10.0178 9.49643C10.0178 9.21967 9.90788 8.95425 9.71218 8.75855C9.51649 8.56285 9.25106 8.45291 8.97431 8.45291H7.93079C7.65403 8.45291 7.38861 8.34297 7.19291 8.14727C6.99722 7.95157 6.88727 7.68615 6.88727 7.4094V6.88764C6.88727 6.74926 6.94225 6.61655 7.04009 6.5187C7.13794 6.42085 7.27065 6.36588 7.40903 6.36588C7.54741 6.36588 7.68012 6.31091 7.77797 6.21306C7.87582 6.11521 7.93079 5.9825 7.93079 5.84412V5.58324C7.93079 5.37567 8.01325 5.17661 8.16002 5.02983C8.30679 4.88306 8.50586 4.80061 8.71343 4.80061Z" fill="#0B0B0B" stroke="#0B0B0B" stroke-width="0.834812" stroke-linecap="round" stroke-linejoin="round"/>
</g>
</g>
</g>
</g>
</g>
</g>
</g>
</g>
</g>
</g>
</g>
</g>
</g>
</g>
</g>
<defs>
<clipPath id="clip0_235_21">
<rect x="-27.9045" y="-253.087" width="738.253" height="297.257" rx="14.1426" fill="white"/>
</clipPath>
<clipPath id="clip1_235_21">
<rect x="-27.9045" y="-253.087" width="530.955" height="296.279" rx="14.1393" fill="white"/>
</clipPath>
<clipPath id="clip2_235_21">
<rect width="491.843" height="46.5509" fill="white" transform="translate(-8.34814)"/>
</clipPath>
</defs>
</svg>
