<svg width="16" height="16" viewBox="0 0 16 16" fill="none" xmlns="http://www.w3.org/2000/svg">

<g id="Pages">
<g id="Page 2">
<rect width="1440" height="780" transform="translate(-378.778 -420.612)" fill="#050506"/>
<g id="How It Works">
<rect width="1440" height="718" transform="translate(-378.778 -358.612)" fill="#050506"/>
<g id="Content">
<g id="Workflow Animation Spacer">
<g id="2.0 Illustration">
<g id="Product">
<g clip-path="url(#clip0_235_21)">
<g id="SERP Analysis">
<g clip-path="url(#clip1_235_21)">
<rect x="-27.9045" y="-120.873" width="530.955" height="296.279" rx="14.1393" fill="#080809"/>
<g id="Website Frame">
<g id="Website 2" clip-path="url(#clip2_235_21)">
<g id="Website Header">
<g id="Logo">
<circle id="Logo Background" cx="7.93072" cy="7.93072" r="7.93072" fill="#323131"/>
<g id="globe-earth-2-svgrepo-com 1">
<path id="Vector" d="M7.93044 12.626C10.5239 12.626 12.6263 10.5236 12.6263 7.9302C12.6263 5.33677 10.5239 3.23438 7.93044 3.23438C5.33701 3.23438 3.23462 5.33677 3.23462 7.9302C3.23462 10.5236 5.33701 12.626 7.93044 12.626Z" stroke="#0B0B0B" stroke-width="0.834812" stroke-linecap="round" stroke-linejoin="round"/>
<path id="Vector_2" d="M8.71343 4.79987H8.97431C9.25106 4.79987 9.51649 4.68993 9.71218 4.49423C9.90788 4.29854 10.0178 4.03312 10.0178 3.75636C6.05246 2.29544 4.01761 5.06075 3.49585 6.62603L5.67001 9.28334C5.78219 9.42056 5.84376 9.59274 5.84376 9.77014C5.84376 10.1948 6.1949 10.5392 6.61961 10.5392C7.05163 10.5392 7.40903 10.8898 7.40903 11.3218V12.6262C8.53968 12.5391 10.957 12.0001 11.5831 10.5392H11.0613C10.7846 10.5392 10.5192 10.4293 10.3235 10.2336C10.1278 10.0379 10.0178 9.77245 10.0178 9.49569C10.0178 9.21894 9.90788 8.95351 9.71218 8.75782C9.51649 8.56212 9.25106 8.45218 8.97431 8.45218H7.93079C7.65403 8.45218 7.38861 8.34224 7.19291 8.14654C6.99722 7.95084 6.88727 7.68542 6.88727 7.40866V6.8869C6.88727 6.74853 6.94225 6.61581 7.04009 6.51797C7.13794 6.42012 7.27065 6.36515 7.40903 6.36515C7.54741 6.36515 7.68012 6.31018 7.77797 6.21233C7.87582 6.11448 7.93079 5.98177 7.93079 5.84339V5.58251C7.93079 5.37494 8.01325 5.17588 8.16002 5.0291C8.30679 4.88233 8.50586 4.79987 8.71343 4.79987Z" fill="#0B0B0B" stroke="#0B0B0B" stroke-width="0.834812" stroke-linecap="round" stroke-linejoin="round"/>
</g>
</g>
</g>
</g>
</g>
</g>
</g>
</g>
</g>
</g>
</g>
</g>
</g>
</g>
</g>
<defs>
<clipPath id="clip0_235_21">
<rect x="-27.9045" y="-120.873" width="738.253" height="297.257" rx="14.1426" fill="white"/>
</clipPath>
<clipPath id="clip1_235_21">
<rect x="-27.9045" y="-120.873" width="530.955" height="296.279" rx="14.1393" fill="white"/>
</clipPath>
<clipPath id="clip2_235_21">
<rect width="491.843" height="46.5509" fill="white" transform="translate(-8.34814)"/>
</clipPath>
</defs>
</svg>
